<svg width="23" height="23" viewBox="0 0 23 23" fill="none" xmlns="http://www.w3.org/2000/svg">
<path d="M20.3967 7.93097L14.6939 7.10216L12.1446 1.9339C12.075 1.7924 11.9604 1.67785 11.8189 1.60822C11.464 1.43302 11.0328 1.57902 10.8553 1.9339L8.30603 7.10216L2.6032 7.93097C2.44597 7.95343 2.30222 8.02755 2.19216 8.13986C2.05911 8.27662 1.98579 8.4606 1.98831 8.65139C1.99084 8.84218 2.06901 9.02416 2.20564 9.15734L6.33171 13.1801L5.35691 18.8605C5.33405 18.9926 5.34867 19.1285 5.39912 19.2528C5.44956 19.377 5.53381 19.4846 5.64231 19.5634C5.75082 19.6422 5.87923 19.6891 6.01299 19.6986C6.14675 19.7081 6.28051 19.68 6.39909 19.6174L11.5 16.9356L16.6009 19.6174C16.7401 19.6915 16.9018 19.7162 17.0568 19.6893C17.4476 19.6219 17.7104 19.2513 17.643 18.8605L16.6682 13.1801L20.7943 9.15734C20.9066 9.04728 20.9807 8.90353 21.0032 8.7463C21.0638 8.35324 20.7898 7.98937 20.3967 7.93097Z" fill="#FFB800" fill-opacity="0.8"/>
</svg>
